<?xml version="1.0" standalone="no"?>
<!DOCTYPE svg PUBLIC "-//W3C//DTD SVG 20010904//EN"
 "http://www.w3.org/TR/2001/REC-SVG-20010904/DTD/svg10.dtd">
<svg version="1.0" xmlns="http://www.w3.org/2000/svg"
 width="128.000000pt" height="128.000000pt" viewBox="0 0 128.000000 128.000000"
 preserveAspectRatio="xMidYMid meet">

<g transform="translate(0.000000,128.000000) scale(0.100000,-0.100000)"
fill="#000000" stroke="none">
<path d="M330 1198 l0 -75 93 -6 c192 -12 385 -85 472 -178 26 -28 49 -48 52
-45 3 2 7 23 10 45 8 61 -34 141 -101 191 -102 77 -261 128 -428 137 l-98 6 0
-75z"/>
<path d="M870 824 c0 -8 5 -12 10 -9 6 3 10 10 10 16 0 5 -4 9 -10 9 -5 0 -10
-7 -10 -16z"/>
<path d="M960 768 c0 -13 -10 -39 -21 -58 l-22 -35 29 -20 c16 -11 59 -50 95
-86 l67 -67 6 29 c7 35 -2 83 -21 124 -16 31 -112 135 -125 135 -4 0 -8 -10
-8 -22z"/>
<path d="M641 679 c-37 -15 -200 -39 -263 -39 l-58 0 0 -240 0 -240 38 0 c20
0 54 3 75 6 l37 7 0 158 0 159 28 5 c61 13 119 27 155 36 l37 10 0 74 c0 79
-3 83 -49 64z"/>
</g>
</svg>
